<svg xmlns="http://www.w3.org/2000/svg" width="512" height="512" viewBox="0 0 512 512" version="1.1">
	<path d="M 232.657 69.767 C 230.945 70.153, 230.865 71.008, 231.526 81.841 C 231.917 88.254, 232.436 93.838, 232.678 94.250 C 233.534 95.709, 247.676 95.096, 248.964 93.544 C 250.991 91.101, 249.161 90, 243.077 90 L 237.272 90 236.636 85.360 C 236.286 82.809, 236 78.335, 236 75.419 C 236 69.797, 235.592 69.106, 232.657 69.767 M 252 81.460 L 252 94 259 94.150 C 262.850 94.233, 266.563 94.345, 267.250 94.400 C 267.938 94.455, 268.644 93.487, 268.820 92.250 C 269.121 90.129, 268.792 90, 263.070 90 L 257 90 257 86.360 L 257 82.720 262.424 83.280 C 266.691 83.720, 267.970 83.520, 268.424 82.338 C 269.555 79.389, 268.923 79, 263 79 L 257 79 257 75.927 L 257 72.855 262.750 73.121 C 267.869 73.358, 268.500 73.174, 268.500 71.444 C 268.500 69.699, 267.654 69.470, 260.250 69.210 L 252 68.919 252 81.460 M 273.618 71.297 C 273.293 72.509, 273.021 78.338, 273.014 84.250 C 273.001 94.338, 273.123 95, 275 95 C 276.556 95, 277 94.333, 277 92 L 277 89 283.345 89 C 290.328 89, 292.096 87.892, 294.047 82.295 C 294.878 79.910, 294.780 78.409, 293.608 75.604 C 291.852 71.401, 289.927 70.509, 280.854 69.693 C 274.606 69.130, 274.173 69.226, 273.618 71.297 M 217.500 71.020 C 212.694 72.034, 210.373 73.695, 208.630 77.367 C 206.727 81.377, 206.595 83.801, 208.067 87.685 C 211.212 95.987, 220.777 98.542, 228 93.010 C 230.365 91.199, 230.407 91.002, 228.781 89.365 C 227.217 87.790, 226.902 87.775, 225.281 89.199 C 219.311 94.444, 212 90.496, 212 82.026 C 212 80.105, 212.878 78.455, 214.635 77.073 C 217.636 74.712, 219.794 74.493, 223.490 76.177 C 225.648 77.161, 226.356 77.069, 227.787 75.621 C 229.405 73.983, 229.389 73.821, 227.500 72.693 C 224.527 70.919, 220.873 70.308, 217.500 71.020 M 298.957 72.250 C 298.083 77.295, 296.312 95.696, 296.647 96.239 C 296.906 96.657, 297.936 97, 298.936 97 C 300.488 97, 300.923 95.580, 301.917 87.250 C 302.557 81.888, 303.324 76.263, 303.620 74.750 C 304.096 72.321, 303.857 72, 301.579 72 C 300.161 72, 298.981 72.112, 298.957 72.250 M 195 73.706 C 194.175 74.008, 192.488 75.176, 191.250 76.302 C 187.069 80.106, 188.876 85.283, 195.028 87.127 C 200.766 88.846, 202.050 90.731, 199.107 93.115 C 197.826 94.152, 195.670 95, 194.316 95 C 192.501 95, 191.947 95.461, 192.210 96.750 C 192.479 98.071, 193.490 98.471, 196.328 98.382 C 201.267 98.227, 205 94.812, 205 90.448 C 205 86.753, 203.801 85.519, 198.395 83.647 C 195.709 82.717, 194.500 81.709, 194.500 80.399 C 194.500 78.886, 195.347 78.438, 198.663 78.197 C 202.685 77.904, 204.762 76.042, 203.444 73.910 C 202.841 72.934, 197.468 72.804, 195 73.706 M 306.992 83.566 C 305.752 93.612, 305.783 94.227, 307.613 96.058 C 309.757 98.201, 319.965 100.463, 323.060 99.481 C 326.163 98.496, 327.703 95.212, 329.417 85.922 C 331.386 75.252, 331.448 76, 328.590 76 C 326.378 76, 326.081 76.592, 324.964 83.250 C 323.198 93.769, 322.583 95, 319.090 95 C 317.462 95, 314.915 94.538, 313.429 93.973 C 310.858 92.996, 310.759 92.705, 311.364 87.973 C 313.480 71.429, 313.541 73, 310.787 73 C 308.371 73, 308.256 73.321, 306.992 83.566 M 278.198 79.250 L 278.500 84.500 282.552 84.798 C 287.604 85.169, 290.593 82.497, 289.591 78.505 C 288.883 75.686, 285.623 74, 280.883 74 C 277.907 74, 277.897 74.021, 278.198 79.250 M 171.797 77.680 C 169.542 78.274, 169.167 79.796, 165.625 102.750 C 165.382 104.320, 165.780 105, 166.939 105 C 169.094 105, 171 103.060, 171 100.867 C 171 99.050, 172.094 98.533, 178.250 97.442 C 181.418 96.880, 182.290 97.137, 183.877 99.096 C 185.388 100.963, 186.175 101.228, 187.908 100.454 C 189.975 99.532, 189.755 99.041, 182.446 88.247 C 178.258 82.061, 174.532 77.052, 174.166 77.116 C 173.800 77.180, 172.734 77.434, 171.797 77.680 M 335.530 80.967 C 332.557 84.252, 333.275 87.887, 337.625 91.574 C 340.909 94.357, 341.328 95.136, 340.369 96.679 C 339.509 98.064, 338.251 98.424, 335.119 98.183 C 331.586 97.910, 331 98.144, 331 99.826 C 331 103.198, 336.922 104.126, 341.928 101.537 C 347.322 98.748, 347.373 94.351, 342.069 89.443 C 338.009 85.687, 337.635 83, 341.173 83 C 342.250 83, 344.031 83.481, 345.130 84.069 C 346.584 84.848, 347.518 84.815, 348.564 83.947 C 350.593 82.263, 350.365 81.487, 347.453 80.161 C 343.411 78.319, 337.569 78.714, 335.530 80.967 M 172.989 85.250 C 172.983 85.938, 172.691 88.238, 172.340 90.362 L 171.702 94.224 175.101 93.495 C 176.970 93.094, 178.678 92.603, 178.896 92.404 C 179.355 91.984, 174.215 84, 173.486 84 C 173.219 84, 172.995 84.563, 172.989 85.250 M 245.297 108.104 C 231.658 113.348, 224.104 129.059, 228.384 143.281 L 229.768 147.879 224.634 145.828 C 206.921 138.751, 206.636 138.673, 198.500 138.694 C 188.959 138.718, 181.436 141.366, 172.989 147.673 C 164.466 154.037, 163.989 154.035, 155.593 147.604 C 151.592 144.539, 144.984 139.311, 140.909 135.986 C 131.514 128.319, 127.746 127.062, 121.413 129.480 C 118.456 130.609, 116.165 132.302, 115.130 134.122 C 113.437 137.098, 111.608 137.792, 110.440 135.902 C 108.750 133.168, 100.447 129, 96.690 129 C 91.198 129, 85.371 132.537, 83.242 137.163 C 81.679 140.560, 81.111 140.951, 77.718 140.974 C 69.102 141.033, 62.984 146.115, 62.243 153.827 C 61.389 162.713, 62.605 164.036, 87.310 181.091 C 99.514 189.516, 112.200 198.274, 115.500 200.552 C 118.800 202.830, 122.467 205.204, 123.649 205.828 C 125.627 206.872, 143.622 210.076, 155.500 211.500 C 158.250 211.829, 162.750 212.523, 165.500 213.041 C 168.250 213.559, 171.947 214.081, 173.716 214.202 C 177.140 214.434, 177.266 215.273, 174.854 221.815 C 174.384 223.088, 174.007 227.813, 174.015 232.315 C 174.064 259.414, 191.291 283.355, 216.381 291.193 C 220.297 292.416, 223.618 293.479, 223.763 293.555 C 223.908 293.631, 222.371 295.448, 220.348 297.593 C 215.010 303.253, 212.824 308.892, 212.824 317 C 212.824 327.298, 217.081 335.043, 226.347 341.602 L 229.194 343.617 224.748 347.030 C 211.607 357.119, 208.781 374.053, 218.065 387.091 C 220.223 390.122, 239.485 405.270, 240.550 404.773 C 240.871 404.623, 241.289 401.570, 241.477 397.988 C 241.909 389.794, 242.996 383.880, 243.962 384.476 C 244.370 384.729, 244.978 388.193, 245.311 392.175 C 245.712 396.956, 246.561 400.274, 247.811 401.949 C 250.188 405.133, 254.973 406.584, 259.148 405.386 C 265.051 403.694, 265.750 401.551, 268.250 377.500 L 270.537 355.500 280.519 348.775 C 295.418 338.737, 299.176 333.159, 299.176 321.085 C 299.176 310.913, 295.152 303.150, 286.925 297.448 L 282.913 294.668 290.095 292.844 C 318.940 285.519, 338.047 261.421, 337.941 232.500 C 337.914 225.113, 336.506 217.081, 334.763 214.378 C 334.300 213.659, 335.203 213.048, 337.270 212.680 C 359.497 208.719, 383.100 203.664, 385.938 202.256 C 392.369 199.065, 442.994 159.913, 444.531 156.941 C 449.761 146.826, 441.832 134.354, 430.683 135.159 C 427.373 135.398, 426.333 135.058, 425.519 133.471 C 422.544 127.669, 418.599 124.476, 413.251 123.540 C 409.150 122.823, 404.118 124.887, 398.736 129.494 L 394.594 133.039 393.047 130.488 C 391.359 127.704, 384.623 124, 381.249 124 C 377.076 124, 374.023 126.039, 359.619 138.448 L 345.012 151.032 341.398 149.522 C 339.410 148.691, 335.695 146.507, 333.142 144.667 C 320.342 135.444, 307.031 134.767, 290.321 142.488 C 284.351 145.245, 282.945 145.605, 283.502 144.231 C 283.889 143.279, 284.428 139.800, 284.702 136.500 C 286.404 115.947, 265.007 100.527, 245.297 108.104 M 251.564 116.148 C 237.430 119.372, 232.068 137.188, 241.871 148.356 C 248.110 155.465, 261.702 155.848, 269.356 149.129 C 272.549 146.327, 275.231 139.877, 275.231 135 C 275.231 122.571, 263.694 113.381, 251.564 116.148 M 380.019 133.774 C 378.113 134.478, 359.794 150.127, 360.293 150.626 C 360.500 150.833, 364.047 150.717, 368.175 150.368 C 375.419 149.756, 375.862 149.566, 380.914 144.897 C 384.669 141.426, 386.056 139.448, 385.823 137.894 C 385.443 135.345, 382.130 132.994, 380.019 133.774 M 396.500 143.610 C 389.900 149.406, 384.398 154.452, 384.274 154.824 C 384.149 155.196, 384.880 156.583, 385.897 157.907 L 387.746 160.315 400.623 151.971 C 407.705 147.381, 414.288 142.966, 415.250 142.158 C 418.953 139.052, 416.061 132.959, 410.921 133.036 C 409.302 133.061, 404.526 136.562, 396.500 143.610 M 93.223 139.557 C 91.806 140.549, 91 142.152, 91 143.974 C 91 146.605, 92.189 147.528, 105.742 155.422 L 120.485 164.009 122.219 161.755 C 123.172 160.515, 123.849 159.156, 123.721 158.735 C 123.265 157.227, 98.468 138.008, 96.973 138.004 C 96.132 138.002, 94.445 138.701, 93.223 139.557 M 122.086 140.250 C 120.924 143.328, 122.003 144.988, 128.351 149.885 C 133.734 154.038, 133.895 154.088, 141.008 153.796 L 148.213 153.500 138.403 145.750 C 127.730 137.317, 123.706 135.961, 122.086 140.250 M 425.988 146.413 C 424.070 147.741, 417.100 152.305, 410.500 156.556 C 389.345 170.182, 388.170 171.047, 386.145 174.478 C 383.209 179.454, 380.891 180.523, 365.665 183.916 C 348.996 187.632, 336.696 187.988, 324.649 185.106 C 315.910 183.014, 313.446 181.322, 314.465 178.110 C 315.648 174.384, 317.952 174.033, 327.022 176.196 C 333.644 177.775, 337.579 178.106, 345 177.707 C 357.564 177.033, 376.667 172.491, 378.085 169.842 C 379.684 166.853, 378.764 162.891, 376 160.865 C 373.723 159.196, 372.476 159.118, 362 159.993 C 346.203 161.312, 339.851 160.138, 331.149 154.294 C 323.286 149.014, 319.604 147.363, 313.717 146.480 C 308.227 145.657, 303.436 146.947, 290.372 152.767 L 280 157.388 280 173.643 L 280 189.898 283.639 188.378 C 288.727 186.252, 297.306 186.430, 301.817 188.756 C 311.502 193.749, 321.799 199.593, 324.594 201.685 C 328.482 204.593, 331.103 204.582, 346.279 201.592 C 353 200.268, 360.300 198.872, 362.500 198.490 C 374.634 196.385, 379.825 195.162, 382.377 193.807 C 385.012 192.408, 432.750 156.250, 435.210 153.790 C 437.516 151.484, 437.498 147.761, 435.171 145.655 C 432.646 143.370, 430.081 143.582, 425.988 146.413 M 190.121 149.048 C 187.162 150.013, 182.887 152.198, 180.621 153.905 C 178.354 155.611, 174.025 158.243, 171 159.753 C 165.850 162.325, 164.461 162.532, 149.159 163 C 133.483 163.480, 132.739 163.596, 130.909 165.861 C 128.599 168.718, 128.535 169.891, 130.537 172.749 C 132.202 175.126, 134.537 175.857, 148.983 178.524 C 160.824 180.710, 175.656 180.092, 184.419 177.048 C 189.807 175.176, 190.547 175.128, 192.669 176.519 C 195.622 178.454, 195.658 181.528, 192.750 183.411 C 188.308 186.287, 174.967 189, 165.265 189 C 156.041 189, 135.151 185.956, 129.710 183.820 C 128.175 183.217, 125.250 180.796, 123.210 178.439 C 120.564 175.383, 113.508 170.650, 98.606 161.935 C 80.573 151.388, 77.370 149.837, 75.210 150.608 C 73.833 151.098, 72.257 152.218, 71.706 153.095 C 69.225 157.050, 71.572 159.218, 98.124 177.500 C 112.503 187.400, 125.353 196.088, 126.680 196.806 C 129.111 198.122, 134.465 199.101, 161 203.078 C 182.004 206.226, 180.623 206.466, 194.500 197.268 C 201.100 192.893, 207.625 188.713, 209 187.978 C 212.884 185.901, 222.775 186.310, 227.774 188.753 L 232.049 190.842 231.774 174.671 L 231.500 158.500 218.500 153.308 C 203.570 147.346, 197.934 146.500, 190.121 149.048 M 242.022 188.724 C 242.034 204.551, 242.701 229.650, 243.505 244.500 C 244.308 259.350, 244.973 273.188, 244.983 275.250 C 244.992 277.313, 245.469 279, 246.043 279 C 247.478 279, 256.922 271.864, 260.117 268.366 C 261.557 266.790, 263.893 263.475, 265.309 261 C 267.735 256.757, 267.943 255.270, 268.938 235 C 269.519 223.175, 269.996 201.451, 269.997 186.724 L 270 159.949 266.750 161.704 C 264.474 162.934, 261.252 163.460, 256 163.460 C 250.748 163.460, 247.526 162.934, 245.250 161.704 L 242 159.949 242.022 188.724 M 206.500 203.166 C 200.604 204.261, 191.540 210.141, 188.224 215.023 C 178.577 229.223, 183.435 254.147, 198.798 269.271 C 201.934 272.359, 207.129 276.459, 210.343 278.383 C 216.087 281.822, 226.942 285, 232.947 285 C 235.886 285, 236 284.836, 236 280.625 C 236 278.219, 235.730 274.901, 235.401 273.253 C 234.855 270.526, 234.363 270.203, 229.951 269.681 C 218.561 268.332, 207.422 259.814, 201.807 248.158 C 199.033 242.400, 198.543 240.182, 198.183 231.750 L 197.767 222 211.828 222 C 224.975 222, 226.057 221.854, 228.478 219.750 C 231.895 216.781, 232.872 210.979, 230.550 207.436 C 227.241 202.385, 218.788 200.884, 206.500 203.166 M 283.495 205.414 C 280.041 208.868, 279.348 212.634, 281.448 216.533 C 284.003 221.277, 286.595 222, 301.047 222 L 314 222 314 230.343 C 314 242.776, 309.029 254.899, 301.504 260.818 C 299.315 262.540, 299 263.565, 299 268.960 C 299 272.354, 298.514 276.040, 297.919 277.151 C 297.324 278.262, 297.087 279.420, 297.391 279.725 C 298.580 280.913, 309.512 273.193, 314.663 267.528 C 330.150 250.496, 333.287 224.441, 321.295 212.449 C 319.630 210.784, 315.557 207.976, 312.244 206.211 C 306.600 203.203, 305.579 203, 296.065 203 C 286.662 203, 285.730 203.179, 283.495 205.414 M 295 211.945 L 295 217 300.055 217 L 305.110 217 304.805 212.250 L 304.500 207.500 299.750 207.195 L 295 206.890 295 211.945 M 208 212.500 L 208 217 212.500 217 L 217 217 217 212.500 L 217 208 212.500 208 L 208 208 208 212.500 M 228 230.563 C 226.075 231.291, 220.725 231.913, 216.111 231.944 L 207.721 232 208.326 237.102 C 209.671 248.458, 220.128 258.925, 231.380 260.179 L 234.259 260.500 234.113 251.500 C 233.930 240.162, 232.933 228.963, 232.121 229.119 C 231.779 229.185, 229.925 229.835, 228 230.563 M 279.002 233.750 C 279.004 238.345, 279.172 238.614, 284.137 241.998 C 286.960 243.923, 290.739 247.214, 292.535 249.312 L 295.801 253.127 298.518 249.566 C 301.767 245.306, 303.896 239.701, 303.956 235.250 L 304 232 295.750 231.956 C 291.199 231.932, 285.706 231.266, 283.500 230.471 C 281.300 229.679, 279.387 229.023, 279.250 229.015 C 279.113 229.007, 279.001 231.137, 279.002 233.750 M 277.988 255.750 C 276.404 261.670, 272.244 269.202, 267.506 274.728 C 265.513 277.054, 255.801 284.386, 245.926 291.023 C 227.181 303.619, 223.771 306.974, 222.486 314.091 C 221.498 319.557, 223.564 325.460, 228.140 330.248 L 232.204 334.500 233.979 328.798 C 238.359 314.726, 244.452 308.125, 267.117 292.894 C 276.806 286.383, 285.464 279.941, 286.357 278.577 C 289.297 274.092, 290.375 267.972, 289.069 263.193 C 288.001 259.283, 281.849 251, 280.014 251 C 279.599 251, 278.688 253.137, 277.988 255.750 M 277.554 310.090 C 275.438 317.156, 269.644 326.282, 264.088 331.302 C 261.950 333.233, 256.106 337.567, 251.100 340.933 C 243.734 345.886, 242 347.523, 242 349.526 C 242 352.274, 241.683 352.436, 239.056 351.030 C 237.634 350.269, 236.057 350.909, 231.754 353.990 C 220.840 361.805, 219.175 373.653, 227.670 383.057 C 229.630 385.226, 231.571 387, 231.985 387 C 232.398 387, 233.477 384.360, 234.383 381.133 C 236.233 374.537, 242.037 365.075, 247.119 360.368 C 248.978 358.645, 258.060 352.189, 267.300 346.021 C 287.008 332.865, 289.467 330.080, 289.467 320.911 C 289.467 316.096, 288.966 314.418, 286.483 310.917 C 284.843 308.602, 282.572 306.101, 281.438 305.358 C 279.479 304.073, 279.286 304.307, 277.554 310.090 M 258.832 309.934 C 249.433 316.664, 246.264 322.770, 248.823 329.220 C 249.416 330.715, 250.112 330.454, 254.152 327.220 C 261.705 321.173, 263.871 317.946, 264.613 311.635 C 264.977 308.536, 265.062 306, 264.800 306 C 264.539 306, 261.853 307.770, 258.832 309.934 M 255.637 366.163 C 252.154 369.462, 252.124 369.562, 252.973 375 C 253.446 378.025, 254.134 383.988, 254.502 388.250 C 254.870 392.512, 255.530 396, 255.969 396 C 256.408 396, 257.059 392.962, 257.416 389.250 C 257.774 385.538, 258.559 378.320, 259.161 373.212 C 259.764 368.103, 260.010 363.677, 259.708 363.375 C 259.407 363.073, 257.575 364.328, 255.637 366.163" stroke="none" fill="black" fill-rule="evenodd"/>
</svg>